<svg width="31" height="30" viewBox="0 0 31 30" fill="none" xmlns="http://www.w3.org/2000/svg">
<g clip-path="url(#clip0_102_36)">
<path d="M14.7315 4.96625C7.7037 4.96625 2 10.5662 2 17.4662C2 24.3662 7.7037 29.9662 14.7315 29.9662C21.7593 29.9662 27.463 24.3662 27.463 17.4662C27.463 10.5662 21.7593 4.96625 14.7315 4.96625ZM14.7315 8.71625C16.8449 8.71625 18.5509 10.3912 18.5509 12.4662C18.5509 14.5412 16.8449 16.2162 14.7315 16.2162C12.6181 16.2162 10.912 14.5412 10.912 12.4662C10.912 10.3912 12.6181 8.71625 14.7315 8.71625ZM14.7315 26.4662C11.5486 26.4662 8.73496 24.8662 7.09259 22.4412C7.13079 19.9537 12.1852 18.5912 14.7315 18.5912C17.265 18.5912 22.3322 19.9537 22.3704 22.4412C20.728 24.8662 17.9144 26.4662 14.7315 26.4662Z" fill="black"/>
</g>
<defs>
<clipPath id="clip0_102_36">
<path d="M0 0H30.5556V30H0V0Z" fill="white"/>
</clipPath>
</defs>
</svg>
