<svg width="31" height="30" viewBox="0 0 31 30" fill="none" xmlns="http://www.w3.org/2000/svg">
<path d="M10.1852 10L10.1852 8.84259C10.1852 6.03003 12.4652 3.75 15.2778 3.75V3.75C18.0903 3.75 20.3704 6.03003 20.3704 8.84259L20.3704 10" stroke="black" stroke-width="2" stroke-linecap="round"/>
<path fill-rule="evenodd" clip-rule="evenodd" d="M4.40524 9.33579C3.81946 9.92157 3.81946 10.8644 3.81946 12.75V19.5C3.81946 23.2712 3.81946 25.1569 4.99103 26.3284C6.1626 27.5 8.04822 27.5 11.8195 27.5H18.7361C22.5074 27.5 24.393 27.5 25.5646 26.3284C26.7361 25.1569 26.7361 23.2712 26.7361 19.5V12.75C26.7361 10.8644 26.7361 9.92157 26.1503 9.33579C25.5646 8.75 24.6217 8.75 22.7361 8.75H7.81946C5.93384 8.75 4.99103 8.75 4.40524 9.33579ZM12.4584 15C12.4584 14.4477 12.0106 14 11.4584 14C10.9061 14 10.4584 14.4477 10.4584 15V17.5C10.4584 18.0523 10.9061 18.5 11.4584 18.5C12.0106 18.5 12.4584 18.0523 12.4584 17.5V15ZM20.0972 15C20.0972 14.4477 19.6495 14 19.0972 14C18.545 14 18.0972 14.4477 18.0972 15V17.5C18.0972 18.0523 18.545 18.5 19.0972 18.5C19.6495 18.5 20.0972 18.0523 20.0972 17.5V15Z" fill="black"/>
</svg>
