<svg width="32" height="32" viewBox="0 0 32 32" fill="none" xmlns="http://www.w3.org/2000/svg">
<path d="M11.9598 2.666L8.89684 7.221C8.82284 7.33107 8.7956 7.46602 8.82111 7.59617C8.84661 7.72632 8.92278 7.841 9.03284 7.915C9.1429 7.989 9.27786 8.01624 9.40801 7.99073C9.53816 7.96523 9.65284 7.88906 9.72684 7.779L12.8078 3.196C13.6278 1.779 14.6958 1 15.8118 1C16.9278 1 17.9958 1.779 18.8148 3.194L24.3288 12.794L20.4088 12.01C20.3444 11.9971 20.2781 11.9971 20.2137 12.0098C20.1492 12.0226 20.0879 12.0479 20.0333 12.0844C19.9229 12.158 19.8463 12.2724 19.8203 12.4025C19.7943 12.5326 19.8211 12.6677 19.8947 12.778C19.9683 12.8884 20.0828 12.965 20.2128 12.991L25.2128 13.991C25.3221 14.0107 25.4348 13.9931 25.5328 13.941C25.5418 13.937 25.5518 13.939 25.5608 13.934C25.5708 13.928 25.5768 13.918 25.5868 13.911C25.6197 13.8889 25.6496 13.8626 25.6758 13.833C25.6918 13.816 25.7078 13.801 25.7208 13.782C25.7407 13.7505 25.7572 13.717 25.7698 13.682C25.7788 13.659 25.7908 13.638 25.7958 13.614C25.7968 13.608 25.8008 13.604 25.8018 13.598L26.8018 8.598C26.8176 8.53254 26.82 8.46457 26.8088 8.39817C26.7976 8.33177 26.7732 8.2683 26.7369 8.21159C26.7006 8.15487 26.6532 8.10606 26.5976 8.0681C26.542 8.03013 26.4793 8.00379 26.4133 7.99065C26.3473 7.97751 26.2792 7.97785 26.2133 7.99163C26.1474 8.00542 26.085 8.03237 26.0298 8.07088C25.9745 8.10939 25.9276 8.15865 25.8919 8.21572C25.8562 8.2728 25.8323 8.33649 25.8218 8.403L25.0828 12.098L19.6818 2.694C18.6738 0.957 17.2998 0 15.8118 0C14.3238 0 12.9498 0.957 11.9598 2.666ZM9.81184 28.519C9.81184 28.3864 9.75916 28.2592 9.66539 28.1654C9.57163 28.0717 9.44445 28.019 9.31184 28.019H4.81284C3.26584 28.016 2.02884 27.41 1.42084 26.355C0.77284 25.232 0.88184 23.751 1.72084 22.292L7.23284 12.648L8.84784 16.687C8.87227 16.748 8.90847 16.8036 8.95438 16.8506C9.00029 16.8976 9.05501 16.9351 9.11541 16.961C9.17582 16.9868 9.24072 17.0005 9.30643 17.0013C9.37213 17.0021 9.43734 16.9899 9.49834 16.9655C9.55934 16.9411 9.61493 16.9049 9.66194 16.859C9.70895 16.8131 9.74645 16.7583 9.77231 16.6979C9.79817 16.6375 9.81188 16.5726 9.81266 16.5069C9.81344 16.4412 9.80127 16.376 9.77684 16.315L7.77684 11.315C7.76684 11.289 7.74884 11.27 7.73484 11.247C7.72184 11.226 7.71284 11.205 7.69684 11.185C7.66281 11.1446 7.62266 11.1099 7.57784 11.082C7.57084 11.077 7.56684 11.07 7.55984 11.066L7.55684 11.065C7.50074 11.0333 7.43885 11.0133 7.37484 11.006C7.36384 11.005 7.35384 11.008 7.34284 11.007C7.29984 11.004 7.25784 11.001 7.21384 11.011L2.21384 12.011C2.08375 12.037 1.96932 12.1136 1.89571 12.224C1.8221 12.3343 1.79535 12.4694 1.82134 12.5995C1.84733 12.7296 1.92394 12.844 2.0343 12.9176C2.14467 12.9912 2.27975 13.018 2.40984 12.992L6.33184 12.208L0.85184 21.796C-0.16916 23.571 -0.27716 25.416 0.55384 26.857C1.34584 28.228 2.89684 29.017 4.81084 29.021H9.31084C9.44372 29.0205 9.571 28.9674 9.66487 28.8733C9.75874 28.7793 9.81158 28.6519 9.81184 28.519ZM31.0758 26.846C31.8988 25.42 31.7878 23.588 30.7948 21.866L28.7698 17.298C28.716 17.1768 28.6162 17.0819 28.4924 17.0343C28.3687 16.9867 28.231 16.9902 28.1098 17.044C27.9886 17.0978 27.8938 17.1976 27.8461 17.3214C27.7985 17.4452 27.802 17.5828 27.8558 17.704L29.9048 22.318C30.7388 23.77 30.8508 25.238 30.2108 26.346C29.6058 27.395 28.3668 27.997 26.8118 28L16.5018 28.017L18.6648 25.854C18.7559 25.7597 18.8063 25.6334 18.8052 25.5023C18.804 25.3712 18.7515 25.2458 18.6587 25.1531C18.566 25.0604 18.4406 25.0078 18.3095 25.0067C18.1784 25.0055 18.0521 25.0559 17.9578 25.147L14.9578 28.147C14.9105 28.1947 14.8733 28.2514 14.8484 28.3137C14.8235 28.3761 14.8114 28.4429 14.8128 28.51L14.8108 28.52C14.8108 28.682 14.8938 28.82 15.0148 28.911L17.9578 31.854C18.0519 31.9476 18.1792 32.0001 18.3118 32.0001C18.4445 32.0001 18.5718 31.9476 18.6658 31.854C18.7596 31.7602 18.8122 31.6331 18.8122 31.5005C18.8122 31.3679 18.7596 31.2408 18.6658 31.147L16.5358 29.017L26.8128 29C28.7328 28.996 30.2868 28.211 31.0758 26.846Z" fill="black"/>
</svg>
